<?xml version="1.0" standalone="no"?>
<!DOCTYPE svg PUBLIC "-//W3C//DTD SVG 20010904//EN"
 "http://www.w3.org/TR/2001/REC-SVG-20010904/DTD/svg10.dtd">
<svg version="1.0" xmlns="http://www.w3.org/2000/svg"
 width="2500.000000pt" height="2500.000000pt" viewBox="0 0 2500.000000 2500.000000"
 preserveAspectRatio="xMidYMid meet">
<metadata>
Created by potrace 1.14, written by Peter Selinger 2001-2017
</metadata>
<g transform="translate(0.000000,2500.000000) scale(0.100000,-0.100000)"
fill="#000000" stroke="none">
<path d="M145 24600 c33 -36 71 -76 85 -90 14 -15 61 -64 105 -111 244 -259
353 -375 380 -404 98 -103 308 -325 335 -355 18 -19 100 -107 184 -195 191
-201 284 -299 332 -351 161 -171 287 -304 329 -349 28 -28 102 -108 167 -176
64 -68 144 -153 178 -189 34 -36 114 -121 178 -189 65 -68 140 -148 167 -176
28 -29 104 -110 170 -180 66 -71 136 -145 155 -165 145 -153 313 -331 342
-362 19 -21 100 -106 179 -190 267 -282 287 -303 325 -344 22 -23 98 -104 170
-180 73 -76 146 -155 164 -174 18 -19 94 -100 170 -180 76 -80 154 -163 175
-185 20 -22 103 -110 183 -194 203 -214 275 -290 482 -510 69 -73 145 -154
170 -180 52 -55 278 -295 340 -361 23 -25 74 -79 114 -120 187 -198 358 -379
396 -420 23 -25 106 -112 184 -195 79 -82 155 -163 169 -178 26 -29 260 -277
327 -347 50 -52 291 -308 330 -350 18 -19 96 -102 174 -184 77 -82 177 -187
221 -234 44 -47 119 -126 166 -176 47 -50 104 -110 125 -133 49 -51 273 -289
337 -357 119 -126 288 -305 327 -346 83 -89 306 -324 340 -361 52 -54 291
-307 340 -359 37 -40 244 -260 340 -361 32 -34 214 -226 396 -419 40 -41 89
-94 110 -116 160 -170 305 -323 334 -354 85 -90 300 -317 500 -530 23 -25 101
-107 174 -184 72 -76 147 -155 166 -176 19 -20 100 -106 180 -191 80 -84 158
-167 174 -184 31 -33 269 -285 326 -344 19 -21 96 -102 170 -181 74 -78 149
-157 165 -175 17 -17 95 -101 175 -185 80 -85 159 -168 175 -186 33 -35 271
-286 331 -351 21 -22 98 -103 170 -180 73 -76 151 -158 174 -183 23 -25 99
-106 170 -180 70 -74 142 -151 160 -170 18 -19 96 -102 174 -185 77 -82 152
-161 166 -176 14 -15 93 -98 175 -185 231 -244 280 -296 321 -340 117 -124
314 -332 344 -364 228 -241 313 -331 340 -360 33 -35 293 -311 340 -360 14
-15 59 -62 100 -106 124 -132 239 -254 329 -349 293 -310 382 -404 411 -435
29 -31 131 -140 406 -430 44 -47 116 -123 160 -169 43 -47 93 -99 109 -116 33
-34 282 -298 324 -343 14 -15 94 -99 176 -186 83 -88 164 -173 180 -191 48
-51 168 -178 325 -345 80 -84 161 -170 180 -190 19 -21 96 -102 171 -181 75
-79 153 -162 174 -184 20 -22 90 -96 155 -165 65 -69 135 -143 155 -165 21
-22 76 -81 124 -131 91 -96 320 -339 391 -414 23 -25 108 -115 189 -200 80
-85 178 -188 216 -229 99 -105 114 -121 267 -282 75 -79 153 -162 173 -184 21
-22 100 -105 175 -185 76 -80 152 -161 170 -180 18 -19 94 -100 170 -180 76
-80 152 -161 170 -180 18 -19 98 -104 179 -189 80 -85 153 -161 161 -171 8 -9
74 -80 147 -156 126 -133 135 -141 235 -190 288 -144 558 -175 797 -94 257 87
487 320 601 610 56 143 69 371 29 524 -35 135 -102 280 -153 329 -18 18 -86
82 -151 142 -65 61 -136 127 -159 149 -335 315 -462 434 -496 466 -37 34 -245
228 -395 370 -159 149 -189 178 -221 207 -17 15 -98 91 -180 168 -82 77 -183
172 -224 210 -41 39 -89 84 -106 100 -17 17 -75 71 -129 120 -53 50 -125 117
-160 150 -35 33 -118 112 -186 175 -68 63 -157 147 -199 186 -41 39 -104 97
-139 130 -35 32 -92 86 -127 119 -34 33 -109 103 -165 155 -56 52 -126 118
-155 145 -28 28 -78 74 -111 104 -32 30 -97 91 -144 135 -108 103 -333 314
-379 356 -19 18 -87 81 -150 140 -63 59 -133 125 -155 145 -22 21 -101 94
-175 164 -74 69 -148 139 -165 155 -30 28 -233 219 -309 289 -243 229 -311
292 -376 354 -41 39 -86 81 -100 93 -14 12 -59 54 -100 93 -97 93 -346 326
-369 346 -15 13 -140 131 -331 311 -20 19 -90 85 -155 145 -65 61 -131 121
-145 135 -60 56 -297 280 -330 310 -19 18 -89 83 -155 145 -66 62 -136 127
-155 145 -19 18 -93 88 -165 155 -145 137 -161 152 -329 309 -65 61 -136 127
-156 146 -20 19 -92 87 -160 150 -68 63 -142 132 -164 153 -55 52 -252 236
-301 282 -247 231 -321 301 -390 366 -44 42 -93 89 -110 104 -29 26 -221 205
-355 331 -36 34 -87 83 -115 109 -27 25 -75 70 -105 98 -124 116 -358 336
-403 377 -27 25 -75 70 -106 100 -32 30 -113 107 -181 170 -68 63 -137 129
-155 145 -18 17 -92 86 -166 155 -73 69 -172 161 -218 205 -47 44 -122 114
-166 155 -44 41 -113 107 -155 147 -41 39 -85 80 -96 90 -12 10 -85 79 -164
153 -79 74 -152 143 -164 153 -11 10 -52 48 -91 85 -75 71 -316 296 -425 398
-36 34 -105 99 -155 146 -49 47 -103 97 -120 112 -27 25 -169 158 -305 286
-26 25 -94 89 -151 142 -57 53 -127 118 -155 145 -28 26 -102 96 -165 154 -63
59 -136 128 -164 154 -27 26 -81 77 -120 113 -38 36 -102 95 -140 131 -66 62
-314 294 -396 371 -20 19 -92 87 -160 150 -67 63 -137 129 -154 145 -18 17
-86 80 -151 141 -66 61 -135 126 -154 144 -55 51 -275 257 -364 341 -45 42
-97 91 -116 109 -19 18 -91 85 -160 150 -69 65 -141 132 -160 150 -19 18 -91
85 -159 149 -68 64 -138 130 -156 146 -17 17 -90 85 -161 151 -71 67 -145 136
-164 154 -57 53 -270 252 -310 290 -74 70 -306 288 -335 314 -16 16 -86 81
-155 145 -69 65 -137 129 -151 142 -15 13 -87 81 -160 150 -74 70 -150 141
-169 159 -19 18 -91 85 -159 149 -68 64 -139 130 -156 146 -28 26 -200 187
-315 295 -21 19 -98 91 -171 160 -73 69 -165 155 -204 191 -38 37 -86 82 -106
100 -20 19 -94 88 -163 153 -70 65 -141 132 -159 149 -18 16 -85 79 -151 141
-65 61 -135 126 -155 145 -87 81 -186 173 -316 296 -77 73 -152 143 -166 156
-30 28 -244 228 -363 340 -77 73 -116 110 -231 217 -28 26 -111 104 -185 173
-74 70 -171 160 -214 200 -43 41 -103 97 -131 124 -29 28 -97 91 -151 141 -55
51 -119 111 -144 134 -25 24 -77 72 -115 109 -39 36 -134 126 -212 199 -77 73
-150 141 -162 151 -12 10 -84 78 -161 151 -77 73 -150 141 -162 152 -13 11
-57 52 -98 91 -103 97 -312 294 -540 507 -79 74 -178 167 -220 206 -102 96
-230 216 -250 234 -10 8 -39 35 -66 60 -43 40 -42 38 11 -20z"/>
<path d="M6870 22505 c22 -26 97 -108 155 -169 11 -12 74 -80 140 -151 66 -71
145 -157 176 -190 32 -33 70 -74 85 -91 16 -17 72 -78 124 -134 52 -56 106
-115 120 -130 14 -15 72 -78 130 -140 58 -62 116 -125 130 -140 14 -15 72 -78
130 -140 129 -139 133 -143 250 -269 52 -57 106 -115 120 -130 14 -15 79 -85
145 -157 66 -71 149 -160 185 -199 36 -38 70 -74 75 -81 6 -6 56 -60 111 -120
56 -60 116 -125 134 -144 18 -19 53 -57 79 -85 26 -27 78 -84 116 -125 39 -42
123 -132 188 -202 65 -70 127 -137 138 -150 11 -13 44 -48 72 -78 29 -30 113
-120 187 -200 73 -80 186 -201 249 -269 146 -157 147 -158 257 -278 106 -114
114 -123 253 -272 57 -61 111 -120 120 -130 9 -10 63 -69 121 -131 138 -147
165 -176 229 -246 30 -32 84 -91 120 -130 36 -38 118 -126 181 -194 189 -204
210 -226 389 -419 57 -61 111 -120 120 -130 9 -10 64 -69 122 -132 59 -63 121
-130 139 -149 30 -32 212 -229 270 -291 14 -15 47 -51 74 -80 28 -30 79 -86
115 -124 36 -39 116 -124 176 -190 61 -65 141 -152 178 -191 38 -40 77 -82 87
-94 11 -13 64 -70 119 -129 54 -58 114 -122 131 -141 18 -19 82 -89 144 -154
61 -65 118 -127 128 -138 9 -10 63 -69 120 -130 56 -61 114 -123 128 -138 122
-132 246 -266 301 -325 91 -97 118 -126 163 -176 22 -24 99 -107 170 -184 72
-77 136 -145 141 -151 6 -6 57 -62 115 -124 58 -62 116 -125 130 -140 14 -15
72 -78 130 -140 58 -62 116 -125 130 -140 14 -15 70 -76 125 -135 132 -143
196 -212 329 -355 34 -36 111 -119 171 -184 61 -66 124 -134 140 -151 17 -18
77 -83 135 -146 58 -62 114 -123 125 -135 11 -11 67 -72 125 -135 58 -62 136
-146 173 -185 38 -40 76 -82 86 -93 15 -17 132 -143 261 -281 19 -21 69 -75
112 -121 42 -46 96 -105 120 -130 23 -25 90 -97 148 -159 58 -63 136 -146 173
-186 38 -40 76 -81 85 -92 10 -11 60 -66 112 -122 52 -56 106 -114 120 -129
14 -15 77 -83 141 -151 64 -69 142 -154 175 -189 32 -36 90 -97 127 -137 38
-40 76 -82 86 -93 10 -11 65 -71 123 -133 59 -62 119 -126 134 -143 15 -16 72
-79 128 -139 56 -60 112 -121 126 -136 41 -44 233 -251 255 -275 11 -11 45
-48 75 -81 30 -33 87 -93 125 -135 135 -146 311 -334 365 -393 30 -33 69 -74
85 -91 27 -28 171 -184 249 -269 15 -17 49 -53 75 -81 26 -27 78 -84 116 -125
39 -42 120 -129 181 -195 62 -66 125 -134 140 -151 69 -75 244 -263 300 -323
34 -37 75 -80 90 -97 16 -17 74 -80 129 -139 55 -59 111 -119 124 -134 36 -40
223 -241 246 -265 24 -26 266 -286 280 -302 6 -6 57 -62 115 -124 58 -62 116
-125 130 -140 14 -15 72 -78 130 -140 58 -62 112 -121 120 -130 14 -16 170
-184 260 -280 19 -21 80 -86 135 -146 55 -59 125 -135 155 -167 30 -33 69 -74
85 -91 17 -17 55 -58 85 -91 30 -33 110 -119 178 -191 67 -72 131 -143 142
-157 23 -29 33 -35 166 -101 315 -156 614 -170 879 -39 115 57 230 154 330
278 220 273 277 611 158 929 -46 123 -86 185 -166 258 -44 40 -90 82 -102 93
-11 11 -72 67 -135 125 -171 157 -210 193 -240 220 -14 14 -76 70 -136 125
-60 55 -111 102 -114 105 -3 3 -57 52 -120 110 -63 58 -140 128 -170 157 -30
29 -65 61 -78 72 -13 10 -72 65 -132 121 -60 56 -118 110 -130 120 -20 18
-164 149 -226 207 -69 64 -233 215 -251 231 -11 9 -71 64 -134 122 -63 58
-141 130 -174 160 -33 30 -84 78 -115 107 -30 28 -65 60 -76 70 -25 21 -198
180 -293 269 -37 34 -78 72 -92 85 -109 99 -204 186 -237 217 -22 20 -62 57
-88 81 -97 89 -161 147 -235 216 -103 96 -275 254 -298 274 -15 13 -106 97
-251 231 -15 14 -68 62 -117 107 -49 46 -103 95 -119 110 -26 24 -179 165
-264 243 -92 84 -215 197 -224 205 -11 10 -32 29 -260 240 -60 55 -124 114
-141 130 -79 73 -219 201 -235 215 -9 8 -63 58 -120 110 -56 52 -114 106 -129
119 -14 13 -55 51 -92 85 -36 34 -107 99 -159 146 -51 47 -100 92 -109 101 -9
8 -97 89 -196 179 -99 91 -194 178 -211 195 -17 16 -65 60 -105 97 -41 36 -88
79 -105 95 -99 92 -360 332 -385 354 -10 9 -69 63 -131 120 -233 216 -474 437
-548 504 -30 28 -82 76 -115 107 -33 31 -69 65 -81 75 -30 26 -204 185 -223
204 -9 8 -48 44 -86 80 -39 35 -122 111 -184 169 -63 58 -123 113 -135 123
-12 10 -46 41 -76 69 -125 116 -169 156 -230 213 -36 33 -109 100 -162 149
-54 48 -113 102 -131 120 -42 39 -215 197 -333 305 -32 30 -86 80 -119 110
-33 31 -114 106 -180 166 -66 60 -125 114 -131 120 -6 5 -55 51 -109 100 -55
50 -128 117 -164 151 -37 34 -79 73 -96 88 -16 15 -50 46 -75 69 -46 43 -261
240 -290 267 -9 8 -39 35 -66 61 -27 25 -103 94 -169 155 -66 60 -129 118
-141 129 -40 38 -219 203 -240 222 -12 10 -66 59 -120 110 -55 50 -109 100
-120 110 -18 15 -170 156 -253 233 -15 14 -69 63 -120 110 -51 47 -105 96
-120 110 -35 33 -227 209 -255 235 -53 48 -232 212 -256 235 -29 27 -74 69
-250 230 -63 58 -146 134 -185 170 -39 36 -98 90 -131 120 -33 30 -109 100
-168 155 -60 55 -118 109 -130 120 -72 66 -221 202 -230 210 -22 21 -392 362
-435 400 -24 22 -58 54 -75 70 -112 104 -252 233 -270 248 -11 10 -65 60 -120
110 -54 51 -107 99 -116 107 -14 12 -177 162 -224 205 -6 6 -67 62 -136 125
-69 63 -134 124 -146 135 -29 28 -213 197 -234 215 -14 12 -192 176 -234 215
-6 6 -45 42 -86 79 -41 38 -100 92 -130 120 -30 28 -107 98 -170 156 -63 58
-124 114 -136 125 -34 32 -225 209 -245 226 -10 9 -62 56 -115 105 -53 49
-109 100 -124 114 -15 14 -69 63 -120 110 -51 47 -107 99 -125 115 -17 17 -56
52 -86 79 -30 27 -81 75 -114 105 -33 31 -109 101 -170 156 -60 55 -119 109
-130 120 -12 11 -66 61 -120 110 -53 50 -112 104 -130 120 -18 17 -55 50 -81
74 -27 24 -74 67 -104 95 -30 28 -43 38 -30 21z"/>
<path d="M12590 20665 c38 -44 36 -43 169 -184 68 -72 131 -140 140 -150 9
-10 65 -71 125 -135 61 -65 121 -129 134 -144 32 -35 197 -214 242 -262 61
-65 217 -234 246 -265 15 -16 59 -64 98 -106 60 -64 141 -151 300 -323 15 -17
72 -78 126 -136 54 -58 111 -119 126 -136 16 -17 76 -82 134 -144 58 -62 116
-124 129 -139 44 -48 236 -255 297 -321 86 -92 186 -200 218 -235 28 -30 203
-220 241 -260 44 -47 332 -357 391 -421 16 -17 76 -82 134 -144 58 -62 113
-122 122 -132 9 -11 67 -73 128 -138 61 -65 120 -128 131 -141 17 -20 194
-210 244 -263 11 -12 72 -77 135 -146 63 -68 124 -134 135 -145 26 -28 221
-238 259 -279 40 -44 226 -244 260 -281 87 -93 233 -250 246 -265 8 -10 67
-73 130 -141 63 -68 146 -157 185 -199 83 -89 64 -69 198 -212 59 -64 115
-125 125 -135 9 -11 67 -73 127 -138 61 -65 123 -132 139 -149 70 -76 243
-262 261 -282 11 -11 43 -45 70 -75 28 -30 98 -106 157 -169 58 -63 119 -129
135 -146 31 -34 220 -238 268 -290 39 -42 223 -239 255 -274 256 -277 331
-358 385 -415 17 -18 77 -83 135 -146 58 -62 114 -123 125 -135 11 -11 65 -69
120 -129 55 -59 116 -124 135 -145 19 -21 55 -60 80 -86 81 -89 173 -188 295
-318 66 -71 127 -137 135 -146 16 -18 199 -216 260 -280 30 -32 194 -210 225
-244 6 -6 46 -49 90 -96 68 -73 131 -141 319 -344 15 -17 78 -85 140 -150 61
-65 118 -127 126 -136 8 -10 62 -68 120 -130 58 -62 118 -127 134 -144 15 -17
74 -80 130 -140 55 -60 108 -117 117 -127 8 -10 65 -71 126 -136 61 -65 125
-134 143 -153 18 -19 55 -60 84 -91 98 -107 271 -293 296 -319 14 -15 49 -53
79 -86 30 -32 108 -117 174 -187 67 -71 129 -138 139 -149 10 -12 64 -70 120
-131 57 -60 105 -113 108 -117 11 -16 109 -68 185 -98 310 -119 585 -43 782
218 96 127 143 267 138 412 -4 112 -18 174 -65 273 -32 69 -49 91 -120 155
-46 41 -93 84 -105 95 -11 11 -70 65 -130 120 -136 124 -113 102 -236 216 -57
53 -117 109 -134 124 -30 27 -192 176 -245 225 -50 47 -223 205 -234 215 -7 6
-43 39 -81 75 -103 96 -295 272 -319 293 -11 10 -64 58 -116 107 -52 49 -105
97 -117 108 -12 10 -72 65 -133 122 -61 57 -120 111 -131 121 -20 17 -165 150
-225 206 -17 16 -79 73 -139 128 -60 55 -139 127 -175 160 -130 120 -163 150
-174 160 -7 6 -43 39 -81 75 -64 59 -214 197 -353 325 -31 28 -65 59 -77 70
-11 11 -45 43 -76 70 -155 142 -277 254 -316 290 -23 22 -82 76 -130 120 -48
44 -119 109 -158 145 -39 36 -122 112 -185 170 -63 58 -128 118 -145 134 -39
36 -203 186 -225 206 -9 8 -63 58 -120 110 -56 52 -114 106 -129 119 -14 13
-51 47 -81 75 -31 28 -105 96 -165 151 -59 55 -118 109 -129 120 -12 11 -69
63 -126 115 -58 52 -112 102 -120 110 -8 8 -67 62 -130 120 -108 99 -196 180
-244 225 -12 11 -68 63 -126 115 -57 52 -111 102 -120 110 -57 53 -236 218
-250 230 -9 8 -66 61 -126 116 -60 56 -133 123 -163 150 -30 27 -70 64 -90 83
-20 18 -73 67 -119 109 -46 41 -98 89 -116 106 -18 17 -77 72 -131 121 -54 50
-114 105 -134 123 -96 89 -251 231 -405 372 -27 25 -61 56 -76 70 -14 14 -73
68 -130 120 -57 52 -111 102 -120 110 -40 38 -218 201 -240 220 -14 12 -50 45
-80 73 -72 68 -300 278 -415 383 -16 15 -59 54 -95 88 -36 34 -113 104 -170
156 -101 91 -201 183 -245 225 -49 46 -239 221 -255 235 -17 15 -168 153 -280
256 -30 28 -67 62 -81 75 -15 13 -71 65 -125 115 -55 51 -112 104 -129 119
-16 15 -52 48 -80 74 -27 26 -104 96 -170 156 -153 139 -202 185 -289 265 -92
86 -86 81 -212 195 -60 55 -134 123 -164 152 -30 28 -66 61 -80 73 -14 11 -45
40 -70 64 -25 23 -103 96 -175 161 -71 66 -135 124 -141 130 -6 5 -55 51 -109
100 -54 50 -110 101 -125 115 -15 14 -71 66 -125 115 -114 105 -122 112 -248
228 -52 48 -106 97 -118 108 -25 21 -85 77 -179 163 -30 28 -43 38 -30 21z"/>
<path d="M18420 18027 c0 -3 17 -24 38 -45 20 -21 61 -65 91 -98 30 -32 84
-91 120 -129 36 -39 109 -117 161 -174 52 -57 109 -118 125 -135 28 -30 191
-206 259 -280 15 -17 54 -58 85 -92 101 -108 264 -285 461 -499 107 -115 213
-230 236 -255 23 -25 56 -61 74 -80 18 -19 58 -62 89 -96 31 -33 101 -109 156
-169 55 -59 115 -124 134 -144 34 -37 197 -214 239 -260 13 -14 68 -74 122
-132 143 -153 147 -157 237 -256 46 -49 95 -103 110 -119 16 -16 78 -83 138
-149 61 -65 137 -148 171 -184 34 -37 85 -93 115 -125 30 -33 63 -69 74 -80
11 -12 70 -75 130 -141 61 -66 119 -129 130 -141 23 -24 200 -214 241 -259 46
-51 218 -237 244 -264 14 -15 50 -54 80 -86 30 -33 101 -110 156 -170 56 -61
116 -126 134 -145 18 -19 55 -60 84 -90 28 -30 103 -111 166 -180 63 -68 124
-134 135 -146 11 -11 44 -47 74 -80 302 -331 307 -335 382 -362 153 -53 274
-25 377 87 53 59 76 117 76 196 0 117 -14 146 -129 251 -48 43 -102 93 -119
109 -18 17 -71 64 -117 106 -46 43 -96 88 -110 100 -14 13 -66 61 -115 105
-112 103 -121 111 -235 216 -52 47 -103 95 -115 105 -12 10 -63 56 -114 103
-51 47 -101 92 -110 100 -17 15 -164 150 -295 270 -39 36 -113 103 -164 150
-52 47 -99 90 -105 95 -6 6 -40 37 -76 70 -36 33 -113 103 -170 156 -137 126
-151 138 -244 223 -44 39 -89 80 -100 91 -12 11 -95 87 -186 170 -91 82 -167
152 -170 155 -6 6 -80 74 -224 205 -54 50 -111 101 -126 115 -15 14 -62 57
-106 96 -88 80 -110 100 -204 187 -76 69 -89 81 -320 292 -96 88 -195 178
-220 201 -58 53 -87 80 -184 168 -44 39 -84 76 -90 81 -6 6 -69 64 -141 129
-162 148 -321 294 -400 366 -32 30 -64 60 -71 65 -9 8 -119 109 -224 205 -15
14 -67 61 -116 105 -118 108 -119 108 -220 202 -49 45 -100 91 -114 103 -24
21 -95 86 -172 159 -21 19 -38 32 -38 28z"/>
<path d="M2120 17918 c14 -13 50 -51 80 -84 30 -33 106 -114 168 -181 61 -66
121 -130 131 -142 10 -12 64 -70 119 -129 55 -59 113 -121 129 -138 73 -80
335 -363 393 -424 14 -14 70 -75 125 -135 55 -60 114 -123 130 -141 17 -17 71
-75 120 -129 50 -53 104 -112 120 -129 17 -17 80 -85 140 -150 61 -66 124
-134 140 -151 17 -18 73 -78 125 -135 52 -57 106 -115 120 -130 94 -102 157
-170 255 -275 62 -66 123 -132 136 -146 34 -37 223 -241 290 -314 32 -33 70
-74 85 -91 35 -38 226 -243 273 -293 18 -20 58 -63 89 -96 30 -33 100 -109
156 -169 56 -60 114 -123 129 -140 16 -17 54 -58 85 -91 31 -33 98 -105 149
-160 50 -55 109 -118 130 -141 21 -22 85 -92 143 -154 58 -62 120 -129 139
-149 18 -20 69 -74 111 -121 43 -47 100 -108 127 -136 40 -43 128 -138 263
-284 72 -78 239 -258 396 -426 61 -65 123 -132 138 -149 69 -75 203 -219 217
-234 9 -9 76 -81 150 -161 73 -80 154 -167 180 -195 26 -27 60 -63 74 -80 15
-16 78 -84 139 -150 61 -66 138 -149 171 -184 33 -36 69 -75 80 -86 25 -27
217 -234 309 -335 39 -41 77 -82 85 -91 9 -8 59 -62 111 -118 52 -57 111 -120
130 -141 19 -21 78 -84 130 -140 52 -56 111 -119 130 -140 34 -36 194 -209
254 -274 41 -45 241 -260 311 -335 33 -36 67 -72 75 -81 50 -54 149 -162 246
-266 124 -133 132 -141 260 -280 51 -54 105 -113 120 -129 37 -40 222 -239
264 -285 60 -65 235 -253 303 -326 38 -40 77 -83 88 -96 11 -12 50 -55 87 -94
107 -113 269 -287 291 -312 11 -13 69 -76 129 -140 60 -64 121 -130 136 -147
15 -16 47 -50 70 -75 23 -25 100 -108 171 -185 72 -77 139 -149 150 -161 11
-11 44 -47 74 -80 30 -32 108 -117 175 -189 67 -71 144 -154 171 -184 28 -30
61 -66 75 -81 25 -26 217 -233 275 -296 107 -116 248 -267 297 -319 31 -33 65
-69 75 -81 10 -12 64 -70 119 -130 56 -60 116 -125 134 -144 18 -19 53 -57 79
-85 26 -27 78 -84 116 -125 39 -42 120 -130 181 -195 62 -66 126 -136 144
-155 18 -19 58 -62 89 -96 47 -51 139 -150 286 -309 17 -18 78 -83 136 -146
58 -63 118 -127 133 -144 60 -65 212 -229 236 -254 20 -21 97 -104 260 -281 8
-9 49 -52 90 -96 41 -44 118 -126 170 -183 113 -123 112 -122 265 -286 66 -71
151 -163 190 -205 38 -41 90 -97 115 -124 25 -26 56 -60 70 -75 24 -26 209
-226 260 -281 14 -15 72 -78 130 -140 58 -62 118 -127 134 -144 15 -17 54 -58
85 -91 52 -56 212 -229 277 -300 15 -16 75 -82 134 -145 59 -63 122 -131 140
-150 69 -75 238 -257 301 -324 36 -39 90 -97 120 -130 30 -32 68 -73 84 -90
32 -35 221 -238 270 -292 17 -18 71 -76 121 -131 51 -54 119 -128 153 -164 84
-91 240 -171 446 -229 69 -19 135 -25 270 -24 106 0 145 5 210 24 173 51 290
131 458 311 33 36 108 152 143 220 111 221 122 500 31 741 -26 69 -82 175
-101 193 -76 70 -263 242 -272 250 -6 6 -53 49 -105 96 -52 48 -107 99 -124
114 -16 16 -77 71 -135 124 -57 53 -136 125 -175 160 -38 35 -75 69 -80 75 -6
6 -57 54 -115 106 -58 52 -114 104 -126 115 -18 17 -105 98 -244 225 -15 14
-71 66 -125 115 -54 50 -105 97 -115 105 -9 8 -68 62 -130 120 -62 58 -118
110 -125 115 -6 6 -40 37 -75 70 -54 50 -150 137 -299 273 -14 13 -69 63 -121
112 -52 49 -104 97 -116 107 -12 10 -67 61 -124 113 -122 112 -130 120 -250
230 -51 47 -110 101 -130 120 -90 83 -249 229 -435 400 -110 101 -251 231
-314 289 -62 58 -117 108 -121 111 -4 3 -59 52 -121 110 -62 58 -145 134 -184
170 -39 36 -120 111 -180 166 -61 56 -123 114 -140 129 -16 15 -68 62 -115
105 -47 43 -98 90 -115 105 -16 15 -77 71 -134 124 -57 53 -116 107 -132 121
-15 14 -73 68 -129 120 -57 52 -112 103 -122 112 -19 17 -169 154 -224 205
-17 16 -59 55 -95 88 -36 33 -112 103 -169 155 -56 52 -112 103 -124 113 -12
10 -41 37 -66 61 -25 23 -77 71 -115 106 -39 36 -119 110 -179 165 -60 55
-121 111 -136 125 -15 14 -66 60 -113 104 -48 43 -104 95 -125 115 -32 29 -99
92 -256 236 -6 6 -63 57 -126 115 -63 58 -137 126 -165 151 -181 166 -356 327
-453 418 -62 57 -123 113 -135 124 -12 10 -67 60 -121 110 -54 51 -108 100
-120 110 -12 10 -70 64 -131 120 -60 56 -137 127 -170 157 -33 30 -62 57 -65
60 -3 3 -32 30 -65 60 -33 30 -112 102 -174 160 -144 132 -149 137 -261 240
-120 110 -128 118 -249 229 -55 51 -111 102 -124 113 -23 21 -79 72 -187 172
-113 105 -292 270 -314 289 -12 10 -64 58 -116 107 -52 49 -106 98 -120 110
-14 12 -74 67 -134 123 -60 56 -118 110 -130 120 -27 24 -202 184 -286 263
-97 90 -162 150 -186 171 -12 10 -67 61 -124 113 -56 52 -115 106 -130 120
-15 14 -74 68 -130 120 -57 52 -111 102 -120 110 -18 16 -208 190 -244 225
-12 11 -69 63 -126 115 -57 52 -114 104 -126 115 -25 24 -217 201 -259 239
-16 15 -50 46 -75 69 -25 23 -97 89 -160 147 -63 58 -140 128 -170 157 -30 29
-65 61 -78 72 -13 10 -72 65 -132 121 -60 56 -119 111 -132 122 -13 11 -63 57
-113 103 -49 46 -103 95 -120 110 -33 30 -44 40 -245 225 -74 69 -155 143
-179 165 -24 22 -56 51 -71 65 -15 14 -54 49 -86 79 -32 30 -106 97 -163 150
-57 53 -116 107 -131 121 -52 47 -235 215 -305 280 -120 111 -287 265 -299
275 -31 27 -388 356 -431 397 -27 25 -59 55 -71 65 -18 15 -102 92 -254 233
-15 14 -68 62 -117 107 -49 46 -103 95 -119 110 -16 16 -76 71 -134 123 -98
90 -201 184 -261 240 -15 14 -69 63 -120 110 -51 47 -104 96 -118 109 -30 27
-211 194 -251 231 -15 14 -51 47 -81 74 -30 27 -103 94 -163 150 -60 55 -118
109 -130 119 -11 10 -41 37 -66 61 -65 60 -170 157 -295 271 -60 55 -143 132
-185 170 -42 39 -105 97 -141 130 -36 33 -116 107 -178 165 -62 58 -121 109
-130 114 -9 5 -5 -2 9 -16z"/>
<path d="M3690 12608 c14 -14 70 -74 125 -134 55 -59 130 -140 166 -179 36
-38 99 -106 139 -150 41 -44 98 -105 126 -135 29 -30 66 -71 84 -90 18 -19 76
-82 129 -140 54 -58 160 -172 236 -255 77 -82 160 -172 186 -200 26 -27 60
-63 75 -80 36 -39 222 -241 254 -275 14 -14 75 -80 135 -145 61 -66 137 -148
171 -185 160 -172 213 -229 264 -284 30 -33 64 -70 75 -81 31 -34 220 -237
251 -271 16 -17 76 -82 134 -144 58 -62 118 -127 133 -144 16 -17 75 -80 131
-141 57 -60 114 -122 127 -136 28 -31 223 -241 259 -280 63 -67 211 -227 236
-254 15 -16 74 -81 132 -143 58 -62 113 -121 122 -132 9 -10 70 -76 137 -147
66 -70 144 -155 174 -187 30 -33 71 -78 92 -100 21 -23 80 -86 130 -140 51
-55 106 -114 122 -132 73 -77 231 -248 245 -264 8 -9 65 -71 126 -136 61 -65
124 -132 139 -149 49 -54 239 -258 307 -330 37 -39 76 -82 88 -95 12 -14 67
-74 123 -134 56 -60 109 -116 117 -126 15 -17 187 -202 315 -339 83 -88 72
-77 205 -221 122 -132 114 -124 205 -221 60 -64 211 -227 309 -333 15 -17 74
-80 131 -141 56 -60 113 -122 126 -136 13 -15 71 -77 129 -140 58 -62 130
-140 160 -172 30 -33 71 -76 90 -97 29 -31 133 -143 254 -274 15 -17 56 -60
90 -96 33 -36 108 -117 166 -180 129 -139 131 -141 260 -280 58 -62 112 -120
120 -130 8 -9 65 -71 126 -136 61 -65 122 -131 135 -145 13 -15 69 -75 124
-134 55 -59 113 -121 129 -139 24 -26 132 -142 266 -286 111 -119 237 -255
250 -270 8 -9 64 -70 124 -134 60 -64 117 -125 126 -136 9 -10 70 -76 137
-147 66 -70 144 -155 174 -187 30 -32 65 -71 79 -86 111 -119 229 -247 249
-269 13 -14 53 -58 90 -96 55 -59 165 -177 301 -325 14 -15 72 -78 130 -140
58 -62 118 -127 134 -144 37 -40 115 -124 247 -267 59 -63 119 -128 135 -145
320 -346 308 -335 399 -377 228 -107 454 -111 631 -12 116 65 232 190 298 323
87 173 83 400 -10 585 -14 26 -33 55 -42 65 -31 30 -227 211 -253 233 -13 11
-44 39 -69 63 -25 23 -106 98 -180 166 -74 68 -140 129 -146 135 -6 5 -58 53
-115 105 -57 52 -115 106 -130 120 -15 14 -62 57 -105 96 -44 40 -95 87 -115
105 -55 52 -222 205 -245 226 -12 10 -72 65 -134 123 -62 58 -120 112 -130
120 -9 8 -62 56 -116 107 -55 50 -111 101 -124 113 -14 12 -50 45 -80 73 -30
29 -107 99 -170 157 -63 58 -140 128 -170 156 -30 29 -69 65 -86 80 -18 16
-78 72 -134 124 -57 52 -112 103 -124 113 -12 10 -39 35 -61 56 -65 60 -426
391 -491 450 -32 30 -91 84 -129 120 -87 81 -262 243 -291 268 -12 10 -66 59
-120 110 -54 50 -108 100 -120 110 -12 10 -72 65 -134 123 -133 123 -109 102
-239 220 -57 52 -114 104 -125 115 -40 37 -221 203 -246 225 -14 12 -52 47
-85 78 -33 32 -112 104 -175 162 -63 58 -127 116 -141 130 -14 14 -63 58 -107
99 -45 40 -94 85 -110 100 -124 114 -171 158 -261 241 -57 52 -116 106 -131
120 -15 14 -52 48 -82 75 -30 28 -101 93 -158 145 -57 52 -111 102 -120 110
-8 8 -56 52 -106 97 -49 45 -112 104 -140 130 -28 26 -73 68 -100 92 -27 24
-101 91 -164 150 -63 58 -139 129 -170 156 -30 28 -62 57 -70 65 -8 8 -42 40
-75 70 -66 60 -244 223 -338 310 -33 30 -70 64 -81 75 -12 11 -71 65 -131 120
-60 55 -119 109 -131 120 -19 18 -179 165 -243 223 -14 13 -44 40 -66 61 -22
20 -157 144 -300 275 -143 132 -287 264 -320 295 -34 31 -108 99 -165 151 -57
52 -115 106 -130 120 -14 14 -76 70 -136 125 -60 55 -134 123 -164 152 -30 28
-66 61 -80 73 -14 12 -74 67 -135 123 -60 56 -134 125 -165 152 -30 28 -57 52
-60 56 -3 3 -59 54 -125 114 -66 60 -147 135 -180 166 -33 30 -91 85 -130 120
-38 35 -90 83 -115 106 -75 68 -103 94 -205 188 -54 50 -103 95 -109 100 -6 6
-40 37 -76 70 -36 32 -97 88 -136 124 -63 59 -270 250 -298 276 -6 6 -63 57
-126 115 -63 58 -120 110 -126 115 -14 13 -208 191 -244 225 -52 48 -245 226
-294 270 -27 25 -61 56 -76 70 -15 14 -71 66 -125 115 -55 50 -116 106 -137
126 -21 20 -57 54 -81 75 -23 20 -91 83 -151 138 -101 94 -188 166 -126 104z"/>
<path d="M6550 6945 c25 -27 50 -54 55 -60 15 -18 212 -231 286 -310 36 -38
90 -97 120 -129 30 -32 63 -69 74 -80 11 -12 69 -75 130 -141 60 -66 135 -147
166 -180 31 -33 67 -72 80 -86 25 -27 199 -215 257 -278 19 -20 55 -59 80 -86
26 -28 94 -102 152 -165 58 -63 114 -124 125 -136 11 -11 65 -69 120 -129 55
-59 114 -123 130 -140 28 -31 185 -201 249 -269 15 -17 74 -80 130 -140 55
-60 108 -117 117 -127 8 -10 65 -71 125 -136 60 -65 138 -149 174 -188 35 -38
88 -95 116 -125 28 -30 80 -86 115 -124 35 -39 92 -100 126 -136 34 -36 72
-77 83 -90 12 -14 65 -72 118 -129 53 -57 108 -115 121 -130 13 -14 70 -75
126 -136 56 -60 124 -134 151 -164 27 -29 63 -68 79 -85 17 -18 75 -81 130
-141 55 -59 113 -122 129 -139 15 -17 69 -75 120 -130 50 -55 105 -114 121
-131 17 -18 77 -83 135 -146 58 -63 112 -121 120 -129 8 -8 40 -42 70 -75 108
-118 266 -290 331 -359 36 -39 90 -98 120 -131 146 -163 213 -222 274 -245 81
-30 191 -31 258 -2 89 40 176 144 193 232 20 107 -8 191 -90 269 -67 63 -58
55 -192 176 -54 49 -106 97 -114 105 -8 8 -64 60 -125 115 -60 55 -126 114
-145 132 -19 18 -48 44 -65 59 -16 15 -50 45 -75 68 -25 23 -124 114 -220 201
-96 88 -180 164 -186 170 -6 5 -53 48 -104 95 -52 47 -122 112 -157 144 -35
32 -73 68 -86 78 -18 16 -166 151 -211 193 -6 6 -87 80 -181 165 -93 85 -175
159 -181 165 -6 5 -53 48 -104 95 -51 47 -105 96 -120 110 -30 27 -198 181
-239 218 -14 13 -66 60 -116 106 -49 45 -223 204 -385 352 -162 147 -315 287
-340 310 -60 56 -99 92 -146 134 -22 19 -68 62 -104 95 -94 87 -254 232 -277
253 -11 9 -66 60 -123 112 -57 52 -112 103 -124 113 -23 20 -187 170 -221 202
-12 11 -64 58 -115 105 -52 47 -101 92 -110 100 -9 8 -54 50 -101 92 -47 43
-99 90 -115 105 -16 15 -72 67 -124 115 -110 100 -116 105 -239 218 -51 47
-103 94 -115 105 -47 42 -220 201 -240 220 -48 46 -58 46 -16 0z"/>
</g>
</svg>
